<svg width="135" height="51" viewBox="0 0 135 51" fill="none" xmlns="http://www.w3.org/2000/svg">
<g clip-path="url(#clip0_46_17756)">
<mask id="mask0_46_17756" style="mask-type:alpha" maskUnits="userSpaceOnUse" x="0" y="5" width="40" height="40">
<circle cx="19.7563" cy="25.2358" r="19.6323" fill="white"/>
</mask>
<g mask="url(#mask0_46_17756)">
<rect width="39.2645" height="39.2645" transform="translate(0.124023 5.60352)" fill="#FC3F1D"/>
<path d="M22.6509 16.5988H20.664C17.258 16.5988 15.5549 18.3018 15.5549 20.8564C15.5549 23.6948 16.6903 25.114 19.2448 26.817L21.2317 28.2362L15.5549 37.0353H11.0135L16.4064 29.0878C13.2842 26.817 11.5812 24.8302 11.5812 21.1402C11.5812 16.5988 14.7034 13.4766 20.664 13.4766H26.6247V37.0353H22.6509V16.5988Z" fill="white"/>
</g>
</g>
<path d="M54.0943 24.6176C54.0943 19.3405 56.7329 17.2883 60.1253 17.1626V31.9888C56.7329 31.8632 54.0943 29.7691 54.0943 24.6176ZM71.2659 24.6176C71.2659 29.7691 68.6273 31.8213 65.193 31.9888V17.1626C68.6692 17.2883 71.2659 19.3405 71.2659 24.6176ZM60.1253 9.70768V13.2258C53.843 13.477 48.9428 17.2883 48.9428 24.6176C48.9428 31.9051 53.843 35.7163 60.1253 35.9257V39.6532H65.193V35.9257C71.5171 35.6744 76.4173 31.9051 76.4173 24.6176C76.4173 17.2883 71.5171 13.5189 65.193 13.2258V9.70768H60.1253ZM76.6176 34.9205V39.2344C76.6176 39.2344 77.4133 39.6532 78.586 39.6532C82.858 39.6532 83.9469 36.6377 84.1982 29.6434L84.4914 22.1047H89.5591V39.2344H94.543V18.1678H80.2613L79.8425 29.434C79.6749 33.9154 79.3818 35.2975 77.7484 35.2975C77.0364 35.2975 76.6176 34.9205 76.6176 34.9205ZM107.203 17.749C101.717 17.749 97.9053 21.644 97.9053 28.722C97.9053 35.7582 101.717 39.6532 107.203 39.6532C112.69 39.6532 116.501 35.7582 116.501 28.6802C116.501 21.644 112.69 17.749 107.203 17.749ZM107.203 35.7163C104.439 35.7163 103.057 33.5803 103.057 28.722C103.057 23.8219 104.439 21.6859 107.203 21.6859C109.967 21.6859 111.349 23.8219 111.349 28.6802C111.349 33.5803 109.967 35.7163 107.203 35.7163ZM134.034 22.1047V18.1678H117.323V22.1047H123.187V39.2344H128.171V22.1047H134.034Z" fill="black"/>
<defs>
<clipPath id="clip0_46_17756">
<rect width="39.2645" height="39.2645" fill="white" transform="translate(0.124023 5.60352)"/>
</clipPath>
</defs>
</svg>
